<svg width="60" height="60" viewBox="0 0 60 60" fill="none" xmlns="http://www.w3.org/2000/svg">
<g id="icon/action/account_circle_24px">
<path id="icon/action/account_circle_24px_2" fill-rule="evenodd" clip-rule="evenodd" d="M29.995 4.99878C16.1951 4.99878 4.99512 16.1988 4.99512 29.9989C4.99512 43.799 16.1951 54.999 29.995 54.999C43.7949 54.999 54.9949 43.799 54.9949 29.9989C54.9949 16.1988 43.7949 4.99878 29.995 4.99878ZM17.666 45.6982C18.741 43.4482 25.291 41.2482 29.991 41.2482C34.691 41.2482 41.266 43.4482 42.316 45.6982C38.916 48.3982 34.641 49.9982 29.991 49.9982C25.341 49.9982 21.066 48.3982 17.666 45.6982ZM29.9903 36.2476C33.6403 36.2476 42.3153 37.7226 45.8903 42.0726C48.4403 38.7226 49.9903 34.5476 49.9903 29.9976C49.9903 18.9726 41.0153 9.99757 29.9903 9.99757C18.9653 9.99757 9.99027 18.9726 9.99027 29.9976C9.99027 34.5476 11.5403 38.7226 14.0903 42.0726C17.6653 37.7226 26.3403 36.2476 29.9903 36.2476ZM29.9903 15C25.1403 15 21.2403 18.9 21.2403 23.75C21.2403 28.6 25.1403 32.5 29.9903 32.5C34.8403 32.5 38.7403 28.6 38.7403 23.75C38.7403 18.9 34.8403 15 29.9903 15ZM26.25 23.7488C26.25 25.8239 27.925 27.4989 30 27.4989C32.075 27.4989 33.75 25.8239 33.75 23.7488C33.75 21.6738 32.075 19.9988 30 19.9988C27.925 19.9988 26.25 21.6738 26.25 23.7488Z" fill="#FAB254"/>
</g>
</svg>
