<svg width="60" height="60" viewBox="0 0 60 60" fill="none" xmlns="http://www.w3.org/2000/svg">
<g id="icon/action/help_outline_24px">
<path id="icon/action/help_outline_24px_2" fill-rule="evenodd" clip-rule="evenodd" d="M5 30C5 16.2 16.2 5 30 5C43.8 5 55 16.2 55 30C55 43.8 43.8 55 30 55C16.2 55 5 43.8 5 30ZM32.5 40V45H27.5V40H32.5ZM30 50C18.975 50 9.99999 41.025 9.99999 30C9.99999 18.975 18.975 10 30 10C41.025 10 50 18.975 50 30C50 41.025 41.025 50 30 50ZM20 25C20 19.475 24.475 15 30 15C35.525 15 40 19.475 40 25C40 28.2073 38.0249 29.9333 36.1019 31.6139C34.2775 33.2082 32.5 34.7616 32.5 37.5H27.5C27.5 32.9468 29.8553 31.1415 31.9261 29.5542C33.5506 28.309 35 27.198 35 25C35 22.25 32.75 20 30 20C27.25 20 25 22.25 25 25H20Z" fill="#5EA4CE"/>
</g>
</svg>
