<svg width="60" height="60" viewBox="0 0 60 60" fill="none" xmlns="http://www.w3.org/2000/svg">
<g id="icon/action/lock_24px 2.1">
<path id="icon/action/lock_24px 2" fill-rule="evenodd" clip-rule="evenodd" d="M42.5 21.25H45C47.75 21.25 50 23.5 50 26.25V51.25C50 54 47.75 56.25 45 56.25H15C12.25 56.25 10 54 10 51.25V26.25C10 23.5 12.25 21.25 15 21.25H17.5V16.25C17.5 9.35 23.1 3.75 30 3.75C36.9 3.75 42.5 9.35 42.5 16.25V21.25ZM30 8.75C25.85 8.75 22.5 12.1 22.5 16.25V21.25H37.5V16.25C37.5 12.1 34.15 8.75 30 8.75ZM15 51.25V26.25H45V51.25H15ZM35 38.75C35 41.5 32.75 43.75 30 43.75C27.25 43.75 25 41.5 25 38.75C25 36 27.25 33.75 30 33.75C32.75 33.75 35 36 35 38.75Z" fill="#B8B8D6"/>
</g>
</svg>
