<svg width="91" height="99" viewBox="0 0 91 99" fill="none" xmlns="http://www.w3.org/2000/svg">
<path d="M75.4736 0.752441H15.1259C6.84158 0.752441 0.125854 7.46817 0.125854 15.7524V83.4171C0.125854 91.7014 6.84158 98.4171 15.1259 98.4171H75.4736C83.7578 98.4171 90.4736 91.7014 90.4736 83.4171V15.7524C90.4736 7.46817 83.7578 0.752441 75.4736 0.752441Z" fill="#88DEC9" fill-opacity="0.83"/>
<path fill-rule="evenodd" clip-rule="evenodd" d="M66.775 33.1052C67.75 32.1303 67.75 30.5554 66.775 29.5805L60.925 23.7311C60.4579 23.2631 59.8238 23 59.1625 23C58.5012 23 57.8671 23.2631 57.4 23.7311L52.5 28.6306L61.875 38.0047L66.775 33.1052ZM25 56.1278L50 31.1304L59.375 40.5044L34.375 65.5018H25V56.1278ZM30 60.5023H32.3L52.3 40.5044L50 38.2046L30 58.2026V60.5023ZM75 73.0011H15V83H75V73.0011Z" fill="white"/>
</svg>
